<svg xmlns="http://www.w3.org/2000/svg" viewBox="0 0 1024 1024" width="1024" height="1024">
  <defs>
    <linearGradient id="rojo" x1="0" y1="0" x2="1" y2="1">
      <stop offset="0" stop-color="#EF4050"/>
      <stop offset="0.55" stop-color="#D7263D"/>
      <stop offset="1" stop-color="#B3121F"/>
    </linearGradient>
  </defs>

  <!-- Fondo del ícono -->
  <rect x="64" y="64" width="896" height="896" rx="204" fill="url(#rojo)"/>

  <!-- Cara robot -->
  <rect x="234" y="196" width="556" height="168" rx="84" fill="#F8F5F1"/>
  <circle cx="340" cy="280" r="33" fill="#F4B942"/>
  <circle cx="684" cy="280" r="33" fill="#2F9E44"/>
  <path d="M470 264 Q512 306 554 264" fill="none" stroke="#1F1A17" stroke-width="18" stroke-linecap="round"/>

  <!-- Línea de progreso: termina EN la licencia -->
  <polyline points="252,838 384,652 472,744 696,436"
            fill="none" stroke="#FFFFFF" stroke-width="60"
            stroke-linecap="round" stroke-linejoin="round"/>

  <!-- Licencia simplificada: solo silueta + badge L -->
  <g transform="translate(704,428) rotate(8)">
    <rect x="-142" y="-96" width="284" height="192" rx="30" fill="#FFFFFF"/>
    <rect x="-110" y="-56" width="90" height="90" rx="16" fill="#D7263D"/>
    <rect x="4" y="-42" width="128" height="24" rx="12" fill="#D7263D"/>
    <rect x="72" y="40" width="52" height="52" rx="12" fill="#1B6FD8"/>
    <path d="M90 52 v30 h22" fill="none" stroke="#FFFFFF" stroke-width="11"
          stroke-linecap="round" stroke-linejoin="round"/>
  </g>
</svg>
